<?xml version="1.0" standalone="no"?>
<!DOCTYPE svg PUBLIC "-//W3C//DTD SVG 20010904//EN"
 "http://www.w3.org/TR/2001/REC-SVG-20010904/DTD/svg10.dtd">
<svg version="1.0" xmlns="http://www.w3.org/2000/svg"
 width="800.000000pt" height="1200.000000pt" viewBox="0 0 800.000000 1200.000000"
 preserveAspectRatio="xMidYMid meet">
<metadata>
Created by potrace 1.15, written by Peter Selinger 2001-2017
</metadata>
<g transform="translate(0.000000,1200.000000) scale(0.100000,-0.100000)"
fill="#000000" stroke="none">
<path d="M3880 10331 c18 -13 20 -13 -170 -15 -121 -1 -143 -5 -213 -30 -42
-15 -84 -26 -91 -23 -8 3 -21 -4 -30 -18 -8 -13 -30 -26 -48 -30 -18 -4 -39
-11 -48 -16 -8 -4 -32 -11 -52 -14 -21 -3 -38 -11 -38 -17 0 -5 -6 -8 -13 -5
-22 8 -198 -41 -242 -69 -11 -7 -46 -20 -77 -29 -32 -9 -58 -19 -58 -21 0 -3
20 -4 45 -3 45 3 68 -6 50 -19 -14 -10 -18 -42 -5 -42 6 0 8 -5 4 -11 -3 -6
-15 -9 -25 -6 -20 5 -24 -12 -10 -47 6 -15 -3 -30 -41 -66 -51 -50 -67 -87
-22 -51 38 30 44 26 23 -15 -19 -38 -17 -60 4 -47 7 4 6 -1 -2 -11 -8 -9 -19
-15 -25 -13 -13 4 -57 -39 -48 -47 3 -3 -3 -15 -12 -25 -10 -11 -15 -24 -12
-30 4 -6 -17 -36 -46 -66 -29 -31 -53 -61 -53 -68 0 -13 -41 -69 -97 -132 -21
-23 -38 -49 -38 -58 0 -9 -5 -19 -11 -22 -6 -4 -8 -13 -5 -21 3 -7 -8 -46 -24
-86 -30 -73 -38 -118 -21 -118 5 0 12 6 14 13 3 6 6 -4 6 -23 1 -20 -3 -40 -8
-45 -13 -14 -21 -115 -9 -115 13 0 -1 -167 -18 -208 -9 -21 -9 -30 -2 -26 8 5
9 0 3 -17 -15 -48 -4 -424 14 -472 6 -16 11 -46 11 -68 0 -32 -3 -39 -20 -39
-11 0 -20 -4 -20 -10 0 -5 5 -10 10 -10 14 0 70 -58 70 -72 0 -7 12 -24 27
-40 23 -24 24 -28 10 -34 -10 -3 -17 -13 -17 -21 0 -9 6 -13 15 -9 8 3 14 2
13 -2 -1 -4 11 -27 27 -52 32 -51 41 -134 16 -149 -10 -7 -12 -23 -8 -67 3
-33 3 -48 -1 -35 l-7 24 -13 -27 c-11 -26 -11 -27 10 -24 15 2 24 11 26 26 4
27 22 29 22 2 0 -11 4 -20 9 -20 5 0 8 -8 7 -17 0 -10 4 -17 10 -16 8 1 14
-25 19 -71 3 -40 10 -89 14 -109 7 -27 6 -34 -4 -31 -7 3 -15 14 -18 25 -3 11
-14 19 -26 19 -22 0 -28 -14 -11 -25 5 -3 7 -12 4 -20 -4 -9 6 -26 25 -42 18
-16 31 -37 31 -51 0 -16 5 -22 16 -20 24 4 45 -62 47 -144 2 -70 6 -78 30 -54
12 12 19 -1 51 -96 20 -61 50 -138 65 -172 48 -105 51 -115 65 -214 22 -150
29 -252 18 -252 -10 0 -8 -81 4 -133 3 -15 -1 -46 -9 -70 -23 -66 -37 -178
-36 -285 1 -53 3 -89 6 -79 2 9 11 17 19 17 9 0 14 12 15 33 2 48 15 -42 28
-193 7 -78 23 -166 42 -235 72 -262 93 -331 106 -355 l14 -25 -6 25 c-4 14
-15 49 -26 78 -20 55 -25 93 -11 77 5 -6 24 -45 42 -87 19 -43 39 -78 45 -78
17 0 85 -140 88 -182 1 -20 5 -34 9 -32 9 6 59 -56 53 -67 -4 -5 1 -6 10 -3
17 7 49 -28 51 -56 1 -8 5 -30 9 -47 9 -41 30 -44 22 -3 -4 17 -2 32 5 36 7 4
8 3 4 -5 -4 -7 2 -19 16 -30 18 -16 24 -17 31 -6 9 16 -12 104 -30 126 -7 8
-13 21 -13 28 0 7 -11 26 -25 43 -14 16 -25 39 -25 51 0 12 -7 31 -15 41 -8
11 -15 30 -15 43 0 13 -4 23 -9 23 -4 0 -16 21 -26 48 -10 26 -22 53 -28 60
-19 24 -65 124 -78 168 -8 24 -18 44 -24 44 -20 0 -39 73 -40 150 0 51 -6 85
-17 105 -56 100 -78 186 -78 312 0 47 -4 73 -12 75 -7 3 -13 24 -13 51 -1 26
-7 53 -13 59 -20 20 -14 25 41 27 28 1 54 6 55 11 6 17 40 11 44 -7 2 -9 19
-22 38 -28 23 -8 34 -18 33 -29 -1 -14 4 -16 25 -12 20 5 23 4 12 -3 -18 -12
-8 -23 24 -26 13 -2 47 -21 76 -44 28 -23 56 -41 61 -41 5 0 31 -21 59 -47 68
-65 77 -73 91 -73 6 0 24 -9 39 -20 16 -11 52 -25 82 -30 29 -6 55 -15 56 -20
2 -6 16 -10 32 -10 16 0 36 -7 45 -16 14 -14 27 -15 88 -8 116 13 269 12 297
-3 14 -7 58 -13 103 -13 47 0 77 -4 77 -11 0 -5 10 -3 22 5 12 9 30 16 40 16
10 0 18 4 18 10 0 5 16 12 35 16 19 3 39 12 46 20 6 8 22 14 36 14 29 0 73 27
73 45 0 8 10 17 23 21 12 4 24 9 27 13 3 3 22 14 43 24 21 9 36 21 32 26 -3 5
2 8 11 7 16 -3 74 48 74 65 0 5 11 9 24 9 14 0 33 11 44 25 15 18 29 25 56 25
l37 0 -7 -67 c-4 -41 -3 -64 2 -60 6 3 16 2 23 -2 10 -6 11 -27 6 -85 -4 -42
-11 -76 -15 -76 -4 0 -11 -36 -15 -80 -4 -44 -11 -80 -17 -80 -5 0 -7 -4 -3
-10 7 -11 -34 -144 -47 -148 -4 -2 -8 -14 -8 -27 0 -13 -4 -27 -10 -30 -5 -3
-10 -15 -10 -27 0 -11 -6 -32 -14 -46 -34 -67 -55 -123 -71 -192 -10 -41 -22
-78 -27 -81 -5 -3 1 -17 12 -31 22 -29 26 -68 8 -86 -15 -15 -3 -16 23 -2 12
7 19 21 19 40 0 17 5 30 10 30 6 0 18 17 27 38 56 129 76 154 68 82 l-5 -55
18 65 c34 116 49 163 100 309 28 79 60 189 72 245 12 56 26 120 31 143 5 23 9
56 9 72 0 17 5 31 10 31 6 0 10 -5 10 -12 0 -6 3 -8 7 -5 12 12 13 159 2 282
-10 112 -41 245 -75 323 -24 56 -20 318 7 428 11 49 27 103 34 119 7 17 18 47
25 68 10 32 16 38 34 33 73 -20 73 -20 52 -3 -28 21 -26 77 2 105 26 26 32 27
32 7 0 -10 10 -15 29 -15 16 0 37 -7 45 -16 15 -14 16 -13 16 15 0 19 -8 35
-20 44 -17 12 -20 21 -14 56 6 37 5 41 -15 41 -12 0 -24 -7 -27 -15 -10 -24
-24 -17 -24 10 0 14 10 40 22 58 13 18 24 33 25 35 1 2 11 -1 22 -8 17 -9 21
-20 21 -60 0 -28 3 -50 8 -50 11 0 33 -54 36 -92 2 -18 1 -23 -1 -10 -7 37
-23 25 -23 -18 0 -23 5 -40 11 -40 8 0 7 -6 -2 -17 -12 -17 -12 -17 5 -1 10 9
24 38 32 65 7 26 17 62 22 80 8 26 8 31 -4 26 -8 -3 -14 0 -14 7 0 19 40 70
56 70 8 0 14 7 14 15 0 8 5 15 10 15 6 0 10 11 10 24 0 13 5 26 11 28 16 5 28
75 29 161 0 43 4 86 9 95 21 39 30 183 16 241 -6 25 -5 32 3 27 17 -10 15 9
-2 24 -8 6 -13 17 -10 23 2 7 -8 26 -23 44 -16 17 -35 40 -43 51 -8 11 -31 29
-50 39 -29 17 -34 24 -32 49 2 16 10 44 18 63 8 19 15 56 16 83 0 26 5 48 9
48 5 0 9 23 9 50 0 83 21 244 32 251 6 4 8 14 5 24 -4 10 -3 14 4 10 6 -4 8 2
4 17 -3 12 -7 47 -9 75 -2 29 -9 60 -16 68 -10 12 -10 15 4 15 18 0 22 15 6
25 -5 3 -10 15 -10 25 0 10 -6 20 -12 23 -10 3 -10 7 -1 17 9 10 8 16 -3 27
-17 17 -19 43 -3 43 6 0 0 15 -15 34 -31 42 -32 46 -5 39 19 -5 19 -4 -5 33
-14 22 -39 57 -55 79 -44 60 -48 75 -20 76 20 1 19 2 -8 10 -18 5 -35 14 -38
19 -11 18 -14 84 -4 102 8 14 6 18 -7 18 -15 0 -15 2 2 21 19 22 19 22 -8 15
-25 -6 -28 -4 -25 16 1 14 -3 22 -10 21 -8 -2 -10 4 -6 14 4 11 3 14 -5 9 -19
-11 -14 15 6 30 16 13 16 14 0 8 -12 -4 -18 -1 -18 10 0 9 -4 16 -10 16 -5 0
-10 7 -10 15 0 8 -4 15 -9 15 -5 0 -7 25 -5 55 3 32 1 55 -5 55 -5 0 -12 -8
-14 -17 -3 -12 -5 -9 -6 8 0 15 -8 32 -16 39 -8 7 -15 21 -15 31 0 10 -9 21
-20 24 -11 3 -20 13 -20 21 0 8 -9 14 -20 14 -11 0 -24 8 -27 18 -4 9 -24 39
-45 65 -21 27 -38 52 -38 57 0 4 -11 11 -24 14 -13 3 -46 23 -73 44 -46 36
-290 162 -314 162 -6 0 -47 18 -89 39 -43 22 -93 42 -112 46 -18 4 -69 17
-113 30 -44 12 -105 26 -135 30 -30 4 -62 11 -71 16 -8 4 -32 4 -52 -1 -20 -4
-53 -4 -72 0 -20 4 -38 4 -41 -1 -3 -5 -12 -5 -22 0 -26 13 -100 24 -82 12z
m-883 -1409 c-33 -35 -25 -47 17 -25 l31 16 -19 -21 c-17 -20 -17 -22 -2 -28
9 -3 16 -15 16 -26 0 -15 4 -18 23 -12 12 3 29 12 37 18 21 17 72 38 77 32 3
-2 -13 -21 -34 -41 -21 -20 -32 -34 -25 -30 19 10 14 -6 -10 -32 -31 -33 -14
-42 18 -9 31 30 47 27 19 -4 -24 -26 -2 -27 34 -1 27 20 28 20 44 0 9 -10 22
-19 28 -19 8 0 8 5 -1 15 -7 9 -9 19 -5 23 4 4 12 0 18 -9 9 -14 12 -14 30 4
14 14 22 17 25 9 5 -17 42 -15 42 3 0 19 16 19 24 0 4 -13 10 -13 47 0 23 8
52 15 64 15 13 0 25 5 27 12 3 7 34 12 91 13 47 1 92 6 99 12 7 5 21 13 31 16
15 6 17 3 11 -15 -7 -22 -6 -22 20 -4 16 10 35 14 47 11 11 -4 25 -2 32 3 14
10 166 10 184 -1 6 -4 28 0 49 9 26 11 51 14 82 9 30 -4 42 -3 37 4 -3 6 1 11
9 11 19 0 18 3 6 -38 -8 -29 -7 -32 5 -22 12 10 15 9 15 -3 0 -20 39 -29 75
-17 27 9 26 9 -10 4 -37 -5 -39 -4 -24 11 15 15 22 16 54 5 20 -6 47 -9 61 -6
13 4 24 2 24 -4 0 -5 -5 -10 -12 -10 -6 0 -9 -2 -6 -5 3 -3 18 -1 33 5 24 9
26 9 16 -4 -15 -17 -7 -36 15 -36 8 0 14 10 15 23 0 12 3 16 6 9 3 -7 0 -26
-6 -42 -7 -22 -7 -30 2 -30 7 -1 1 -7 -13 -15 -15 -8 -27 -10 -31 -4 -3 6 -11
4 -18 -5 -31 -37 41 -76 75 -41 19 19 38 19 31 1 -3 -8 -1 -16 6 -19 9 -3 9
-10 -1 -31 -17 -37 -15 -72 5 -103 l17 -26 7 24 c7 23 7 23 8 2 1 -14 7 -23
17 -23 8 0 32 -18 51 -40 29 -32 43 -40 70 -40 19 0 32 -4 29 -9 -7 -11 21
-35 63 -51 28 -11 31 -15 15 -20 -16 -6 -14 -8 9 -14 15 -3 27 -12 27 -18 0
-6 9 -21 20 -33 l20 -22 -30 5 c-17 2 -33 8 -36 13 -9 15 -53 10 -62 -8 -6 -9
-16 -14 -25 -10 -9 3 -19 2 -22 -3 -3 -5 -31 -12 -63 -16 -31 -3 -62 -10 -68
-15 -6 -5 -22 -9 -35 -9 -104 2 -204 -30 -261 -84 -17 -17 -28 -21 -31 -13 -4
9 -7 9 -18 0 -10 -10 -10 -13 0 -13 7 0 9 -5 6 -11 -4 -6 -13 -8 -20 -5 -9 3
-18 -7 -25 -30 -6 -18 -17 -34 -25 -34 -23 0 -49 -54 -56 -115 -7 -67 4 -167
25 -235 8 -25 20 -64 27 -87 7 -24 16 -43 21 -43 4 0 8 -9 8 -20 0 -11 9 -25
20 -32 11 -7 20 -18 20 -24 0 -15 38 -92 49 -99 5 -3 13 0 17 6 3 6 9 7 13 3
10 -15 50 -34 68 -34 13 0 14 -3 5 -12 -16 -16 -15 -28 1 -28 15 0 47 -61 47
-91 0 -28 -18 -60 -49 -86 -34 -30 -41 -29 -41 7 0 35 -28 54 -71 48 -21 -3
-29 0 -30 11 0 13 -2 13 -6 2 -3 -8 -19 -26 -36 -40 -16 -13 -35 -30 -42 -38
-15 -14 -85 -32 -128 -33 -32 0 -78 20 -127 56 -27 20 -44 24 -80 22 -38 -3
-48 -8 -65 -35 -25 -40 -36 -45 -69 -28 -14 8 -26 11 -26 7 1 -47 139 -83 186
-47 18 13 17 14 -18 15 -39 0 -59 17 -37 30 7 5 34 12 61 15 39 6 51 3 69 -14
13 -12 29 -21 36 -21 7 0 13 -4 13 -10 0 -5 13 -16 30 -25 38 -20 167 -8 162
15 -2 8 2 24 9 37 10 18 21 23 51 23 21 0 38 -4 38 -8 0 -14 -23 -32 -41 -32
-9 0 -19 -7 -22 -15 -7 -16 8 -29 23 -20 6 3 10 2 10 -3 0 -6 9 -8 19 -5 10 3
29 -1 41 -7 15 -8 20 -8 16 -1 -4 7 1 11 13 11 25 0 71 20 71 32 0 4 8 8 18 8
36 0 65 118 46 190 -7 25 -24 65 -38 90 -14 25 -26 53 -26 62 0 9 -6 23 -13
30 -12 13 -49 85 -82 163 -21 48 -28 157 -11 167 6 4 30 8 54 8 23 0 42 5 42
10 0 6 14 10 30 10 17 0 30 -5 30 -11 0 -8 4 -8 13 -1 12 10 161 7 178 -4 11
-7 48 50 55 85 8 39 33 41 71 5 l28 -26 -24 -19 c-13 -10 -29 -19 -37 -19 -8
0 -14 -8 -15 -17 0 -11 -3 -13 -6 -5 -6 14 -22 15 -43 2 -13 -9 -13 -11 0 -20
13 -9 12 -13 -7 -27 -31 -21 -30 -45 1 -37 19 4 26 1 31 -16 5 -17 12 -20 28
-15 12 3 40 9 62 12 22 3 49 12 60 18 11 7 41 19 68 26 26 7 47 19 47 26 0 8
12 13 30 13 31 0 80 37 80 60 0 6 8 20 18 31 21 22 52 17 52 -10 0 -9 16 -41
35 -71 19 -30 35 -60 35 -67 0 -6 7 -16 16 -21 35 -19 29 -156 -12 -290 -2 -7
-4 -16 -5 -20 0 -4 -6 -16 -12 -27 -16 -29 -46 -117 -47 -136 0 -9 -7 -22 -15
-29 -8 -7 -15 -29 -15 -50 0 -21 -7 -43 -15 -50 -8 -7 -15 -23 -15 -37 0 -24
-20 -62 -53 -98 -9 -10 -22 -36 -28 -57 -5 -21 -17 -42 -27 -47 -9 -5 -28 -34
-42 -65 -16 -36 -31 -56 -42 -56 -27 0 -23 -45 6 -67 27 -21 42 -93 19 -93 -8
0 -13 -14 -13 -40 0 -22 -4 -40 -9 -40 -5 0 -20 -17 -32 -37 -13 -21 -35 -50
-49 -64 -14 -14 -36 -39 -50 -54 -36 -41 -100 -85 -123 -85 -13 0 -17 -5 -13
-15 3 -9 -4 -21 -19 -31 -13 -8 -28 -28 -33 -43 -9 -26 -26 -48 -82 -107 -11
-12 -20 -26 -20 -33 0 -6 -9 -11 -20 -11 -11 0 -23 -7 -27 -16 -9 -24 -102
-64 -149 -64 -24 0 -46 -4 -49 -10 -3 -5 -21 -10 -38 -10 -18 0 -42 -7 -55
-15 -33 -24 -243 -31 -284 -11 -17 9 -34 13 -38 11 -5 -3 -19 -1 -32 4 -13 5
-42 15 -65 22 -24 7 -43 15 -43 18 0 4 -16 15 -35 25 -19 11 -35 24 -35 30 0
7 -9 12 -20 13 -10 1 -44 27 -74 57 -30 31 -59 56 -65 56 -6 0 -11 4 -11 9 0
13 -56 71 -69 71 -6 0 -11 3 -11 8 0 10 -37 57 -79 101 -19 20 -43 55 -53 79
-11 23 -23 40 -28 37 -6 -3 -17 10 -27 29 -9 20 -20 36 -25 36 -4 0 -8 18 -8
40 0 38 -2 40 -29 40 -17 0 -33 -4 -36 -10 -3 -5 -13 -10 -21 -10 -8 0 -14 5
-14 10 0 6 9 10 20 10 17 0 20 7 20 40 0 22 -4 40 -10 40 -5 0 -10 18 -10 40
0 22 -4 40 -10 40 -5 0 -10 18 -10 40 l0 40 -40 0 -40 0 0 -40 c0 -32 4 -40
18 -40 15 0 18 -8 18 -40 -1 -35 2 -40 22 -40 14 0 22 -6 22 -18 0 -14 -8 -17
-40 -17 -38 0 -47 7 -41 39 1 5 -13 24 -30 43 -18 18 -28 33 -21 33 7 0 12 16
12 40 0 22 -4 40 -10 40 -5 0 -10 20 -10 44 0 25 -4 48 -10 51 -5 3 -10 30
-10 59 0 35 -5 58 -15 66 -8 6 -14 15 -13 18 3 12 -26 82 -33 82 -4 0 -10 48
-14 108 -9 134 -8 132 -25 162 -7 14 -15 39 -17 55 -15 143 -21 183 -33 202
-10 16 -11 25 -2 35 7 9 8 19 2 28 -6 8 -10 32 -10 53 0 20 -4 37 -10 37 -18
0 -10 60 12 90 15 21 30 30 50 30 24 0 28 4 28 30 0 28 2 30 40 30 38 0 40 -2
40 -30 0 -16 5 -30 10 -30 6 0 10 18 10 40 0 35 3 40 23 40 21 1 22 1 3 15
-18 14 -17 15 22 15 47 0 53 10 20 34 -22 16 -21 16 27 13 28 -1 56 -6 63 -10
17 -11 32 1 25 20 -5 12 -2 15 10 10 9 -3 40 -9 68 -13 38 -5 50 -4 45 5 -4 6
-14 11 -23 11 -9 0 -14 3 -10 6 3 3 21 1 39 -4 73 -22 88 -23 81 -6 -6 17 -9
18 112 -7 99 -21 110 -25 113 -42 2 -11 -3 -17 -15 -16 -10 0 -13 3 -5 6 6 2
12 9 12 14 0 14 -26 11 -39 -4 -7 -9 -45 -16 -107 -20 -53 -4 -102 -11 -109
-17 -10 -8 -15 -8 -20 0 -5 8 -12 7 -23 -3 -10 -8 -39 -24 -65 -36 -26 -12
-57 -31 -68 -42 -12 -12 -27 -18 -38 -14 -13 4 -29 -5 -50 -25 -34 -35 -39
-50 -16 -50 8 0 15 -8 15 -18 0 -21 36 -59 46 -49 4 3 48 -16 100 -43 76 -40
95 -46 104 -35 9 11 6 17 -14 27 -24 13 -25 15 -11 33 12 17 16 18 24 6 5 -8
16 -11 27 -7 16 6 16 7 -2 21 -24 18 -61 19 -67 3 -2 -7 -8 -10 -13 -5 -4 4 2
14 14 23 12 8 22 22 22 30 0 15 56 54 78 54 6 0 12 -10 12 -23 0 -12 13 -38
28 -57 24 -27 38 -35 78 -39 44 -6 52 -3 82 23 22 20 34 42 38 68 6 34 9 38
28 32 26 -8 65 -35 89 -62 19 -20 18 -21 -20 -27 -66 -11 -77 -16 -62 -26 8
-4 19 -3 26 3 9 7 13 7 13 0 0 -7 10 -8 30 -2 17 5 32 5 35 0 12 -20 35 3 35
36 0 30 3 34 26 34 26 0 26 2 22 48 -3 26 -7 54 -9 62 -3 11 3 14 24 12 25 -3
27 -1 27 31 0 39 -20 91 -47 123 -21 25 -103 64 -135 64 -26 1 -108 22 -123
32 -30 19 -258 30 -290 14 -21 -10 -110 -15 -297 -16 l-108 -1 -1 -27 c-1 -15
-5 -2 -10 28 -4 32 -4 59 2 64 5 6 9 23 9 40 0 16 3 26 7 23 8 -9 32 23 33 43
0 9 9 22 20 30 13 9 18 21 14 36 -4 14 0 23 10 27 11 4 16 19 16 42 0 37 14
74 34 87 6 4 -1 8 -15 8 -18 0 -28 6 -32 20 -3 11 -2 20 2 20 14 0 29 46 20
62 -6 11 -4 20 7 28 10 9 13 22 9 41 -5 22 -2 31 14 41 26 16 26 26 0 49 -19
16 -20 19 -5 25 9 3 16 15 16 25 0 11 5 16 13 13 7 -2 21 2 32 10 31 22 32 9
2 -22z m2509 -1064 c1 -13 9 -41 17 -64 9 -25 12 -46 6 -55 -13 -21 -11 -39 4
-33 36 13 68 -183 48 -289 -10 -57 -44 -115 -68 -116 -6 -1 -13 -6 -15 -13 -2
-6 -10 -8 -16 -4 -14 8 -16 66 -3 66 5 0 19 16 31 35 16 26 20 47 18 87 l-3
53 -41 -3 -41 -3 -7 68 c-4 37 -13 79 -21 93 -40 71 -37 93 23 160 12 13 22
28 22 32 0 7 32 17 39 11 2 -1 5 -13 7 -25z"/>
<path d="M4180 7005 c0 -8 -6 -15 -14 -15 -8 0 -18 -9 -21 -21 -5 -16 -12 -19
-31 -15 -18 5 -26 2 -32 -11 -10 -24 -54 -25 -70 -1 -7 10 -17 16 -22 13 -4
-3 -13 2 -20 10 -14 17 -80 21 -80 5 0 -14 -28 -12 -32 2 -3 9 -9 8 -22 -4 -9
-10 -33 -20 -54 -24 -20 -4 -40 -11 -43 -16 -3 -5 -12 -10 -20 -11 -8 -2 -18
-5 -24 -8 -5 -3 -28 -4 -50 -3 -22 2 -62 3 -90 4 -27 1 -54 5 -60 10 -5 4 -30
11 -55 14 -54 8 -84 -9 -129 -71 -24 -33 -32 -59 -42 -128 -11 -86 -7 -133 10
-106 5 8 33 14 72 17 35 2 81 6 101 10 27 5 48 1 81 -15 49 -24 94 -27 120 -7
10 8 27 12 37 9 11 -3 28 -2 37 2 10 4 43 9 73 10 30 2 75 7 100 10 25 3 50 6
55 5 13 -2 210 -8 300 -9 47 -1 65 -4 56 -10 -10 -6 0 -8 28 -4 42 6 43 5 29
-16 -8 -13 -20 -20 -30 -17 -21 5 -23 -12 -4 -36 15 -20 41 -24 51 -8 11 18
38 12 31 -7 -4 -10 -4 -14 0 -11 4 4 15 3 26 -3 22 -12 48 -1 27 11 -10 7 -10
12 -1 23 14 16 89 42 115 38 10 -1 25 3 32 9 8 7 39 13 70 14 30 2 58 6 62 9
10 11 61 8 68 -3 3 -5 15 -10 26 -10 21 0 25 21 8 52 -8 15 -8 22 1 28 10 6 8
15 -9 35 -11 15 -21 37 -21 48 0 31 -68 116 -111 138 -38 19 -39 19 -58 0 -13
-13 -22 -16 -30 -8 -7 7 -14 7 -25 -2 -10 -8 -16 -9 -21 -1 -4 6 -36 9 -76 8
-42 -1 -74 3 -81 10 -7 7 -22 12 -33 12 -12 0 -25 3 -29 8 -4 4 -22 8 -39 9
-64 4 -109 16 -114 29 -7 19 -23 18 -23 -1z"/>
<path d="M5418 5863 c-1 -43 -4 -112 -6 -153 -7 -107 -10 -483 -4 -494 2 -4 8
-2 13 5 7 11 9 10 9 -3 0 -10 -4 -18 -10 -18 -5 0 -10 -7 -10 -15 0 -9 6 -12
15 -8 14 5 15 33 12 218 -2 116 -7 217 -11 223 -3 5 -2 12 3 14 5 1 10 59 11
128 4 158 2 180 -10 180 -6 0 -11 -34 -12 -77z"/>
<path d="M5316 5117 c-29 -86 -60 -276 -49 -304 4 -11 3 -14 -5 -9 -7 4 -12 1
-12 -8 0 -9 5 -16 10 -16 6 0 10 -7 10 -15 0 -17 16 -20 24 -6 4 5 1 11 -5 13
-8 3 -8 16 2 46 8 29 15 39 21 30 4 -7 8 -11 9 -8 2 12 26 355 24 357 -1 2
-14 -34 -29 -80z"/>
<path d="M5777 4903 c-5 -7 -6 -16 -4 -20 2 -5 0 -64 -4 -133 -9 -122 4 -334
21 -353 4 -4 10 56 13 135 9 197 9 268 -3 268 -5 0 -10 26 -12 58 -2 33 -6 52
-11 45z"/>
<path d="M4922 4695 c-7 -14 -12 -41 -12 -60 0 -32 -27 -117 -50 -157 -6 -10
-10 -29 -10 -42 0 -14 -5 -28 -11 -31 -5 -4 -7 -19 -4 -35 4 -18 -1 -41 -15
-68 -12 -22 -23 -53 -26 -68 -4 -28 -4 -28 12 -9 16 20 16 19 10 -5 l-7 -25
23 28 c13 15 26 27 29 27 3 0 -5 -51 -17 -112 -22 -114 -41 -278 -31 -278 2 0
10 46 17 103 7 56 23 155 36 219 25 123 28 147 14 112 -10 -24 -50 -40 -50
-19 0 7 7 18 15 25 8 7 13 16 10 20 -2 4 7 20 20 36 14 16 37 51 51 79 20 40
25 44 21 21 -3 -16 0 -38 6 -48 9 -13 7 -41 -6 -115 -39 -219 -45 -260 -52
-315 -4 -35 -3 -58 3 -58 15 0 40 110 49 220 3 36 9 73 14 82 5 9 9 26 9 37 0
36 21 69 40 64 12 -3 20 2 24 14 6 22 -2 -185 -10 -242 -4 -28 -3 -36 4 -26 8
11 11 10 15 -5 3 -12 5 -7 5 11 0 37 31 167 43 179 4 5 11 -4 15 -20 10 -44
14 -46 34 -22 l19 23 1 -33 c0 -18 7 -40 15 -49 14 -14 15 -13 10 13 -5 24 -4
26 5 12 6 -10 22 -18 35 -18 13 0 26 -6 28 -12 9 -21 27 13 28 52 0 19 2 44 4
55 5 25 8 56 6 72 -1 7 -38 49 -83 95 -46 46 -108 120 -137 166 -46 68 -109
132 -132 132 -3 0 -11 -11 -17 -25z"/>
<path d="M3272 4607 c-43 -13 -89 -80 -102 -147 -5 -27 -16 -63 -25 -79 -8
-17 -15 -37 -15 -46 0 -8 -4 -15 -8 -15 -5 0 -17 -18 -27 -40 -10 -22 -21 -40
-24 -40 -5 0 10 -138 18 -169 0 -3 8 4 16 15 8 10 15 43 16 74 1 30 4 46 6 36
3 -11 11 -25 18 -33 7 -7 16 -18 18 -25 4 -10 8 -10 16 2 5 8 8 17 5 21 -2 4
0 10 5 13 5 3 14 -8 20 -26 12 -33 26 -30 33 7 2 12 11 20 23 20 26 0 39 21
41 70 1 22 6 56 11 75 11 44 20 31 39 -58 8 -37 17 -74 20 -82 4 -8 8 -21 8
-29 1 -8 7 -16 15 -19 10 -3 12 2 8 19 -12 48 -20 179 -11 179 15 0 63 -81 70
-117 7 -38 24 -55 24 -24 0 33 23 24 52 -19 14 -22 47 -59 73 -82 l47 -42 -26
52 c-14 28 -26 57 -26 64 0 8 -13 25 -30 40 -20 17 -30 22 -30 12 0 -21 -18
-17 -31 7 -6 12 -39 53 -73 93 -111 127 -138 166 -125 183 10 11 8 22 -9 52
-16 28 -19 40 -10 49 17 17 7 20 -30 9z"/>
<path d="M5869 4283 c0 -15 -2 -37 -5 -48 -16 -85 -15 -135 4 -188 l21 -55
-22 -8 c-19 -6 -16 -8 16 -11 30 -3 37 -8 33 -19 -4 -10 -1 -14 6 -12 18 6 35
91 20 96 -7 2 -12 26 -12 63 0 32 -3 59 -8 59 -4 0 -7 18 -7 41 0 22 -5 45
-12 51 -7 6 -13 19 -13 29 0 30 -20 32 -21 2z"/>
<path d="M3706 4133 c8 -21 18 -47 21 -58 6 -19 7 -18 14 5 6 22 7 23 8 4 1
-30 60 -42 78 -17 7 9 13 25 13 35 0 37 37 19 71 -34 19 -29 37 -55 41 -56 5
-2 5 -9 1 -15 -4 -7 1 -6 10 2 16 12 16 16 2 31 -8 9 -15 24 -15 33 0 9 -10
22 -22 28 -13 6 -33 20 -45 31 -14 14 -44 23 -90 28 -37 4 -75 11 -85 15 -15
6 -15 3 -2 -32z"/>
<path d="M410 4112 c0 -7 -6 -11 -12 -9 -9 1 -14 -17 -15 -63 -4 -130 -21
-233 -24 -149 -1 28 -3 25 -9 -16 -9 -58 -1 -145 12 -145 5 0 7 -9 3 -19 -3
-11 -2 -28 4 -38 5 -10 13 -27 17 -38 6 -18 7 -17 15 8 4 17 2 62 -6 111 -9
58 -10 98 -4 132 13 69 29 227 24 233 -3 2 -5 -1 -5 -7z"/>
<path d="M796 3824 c-9 -8 -16 -23 -16 -32 -1 -15 -3 -14 -15 2 -8 11 -15 15
-15 10 0 -6 4 -14 8 -19 5 -6 15 -30 22 -55 8 -25 17 -47 20 -50 4 -3 11 -23
17 -45 13 -49 59 -179 78 -220 7 -16 23 -64 35 -105 12 -41 35 -99 51 -127 16
-29 29 -62 29 -73 0 -11 4 -20 9 -20 5 0 13 -10 17 -22 4 -13 15 -34 25 -47
19 -24 19 -24 19 -2 0 12 -7 35 -15 50 -8 16 -12 31 -9 33 8 9 -33 150 -48
160 -8 6 -9 11 -2 14 7 3 5 21 -7 57 -10 29 -18 62 -19 75 0 32 -15 27 -33
-10 -13 -27 -17 -30 -22 -15 -4 9 -4 24 -1 33 3 8 2 12 -3 9 -5 -3 -12 -1 -16
5 -4 6 4 10 19 10 32 0 38 11 23 44 -18 38 -41 34 -33 -6 6 -31 6 -31 -14 -13
-24 21 -26 41 -5 49 8 3 15 12 15 21 0 8 5 15 10 15 14 0 12 51 -4 79 -9 17
-15 20 -21 11 -5 -9 -12 -2 -21 20 -17 40 -17 43 0 37 11 -4 13 -1 9 11 -14
36 -30 61 -36 56 -3 -3 -3 3 0 15 3 12 1 21 -6 21 -6 0 -11 6 -11 14 0 23 -17
28 -34 10z"/>
<path d="M7456 3666 c-21 -36 -47 -73 -58 -83 -28 -25 -49 -69 -42 -87 9 -23
-15 -20 -36 4 -16 19 -17 16 -23 -76 l-6 -96 34 -47 c18 -25 35 -55 39 -67 8
-25 43 -64 58 -64 9 0 9 3 0 12 -7 7 -12 24 -12 38 0 14 -3 30 -7 36 -5 5 2
-1 15 -14 21 -22 22 -22 22 -3 0 10 7 47 16 81 12 47 13 68 4 94 -16 49 -68
116 -85 109 -28 -10 -15 17 34 71 27 30 52 65 56 78 4 12 16 35 27 51 11 15
15 27 10 27 -5 0 -26 -29 -46 -64z"/>
<path d="M7860 3595 c0 -3 9 -21 19 -41 11 -20 23 -62 26 -93 3 -31 10 -74 15
-96 8 -33 19 -187 20 -284 0 -13 3 -21 7 -17 4 4 6 24 5 44 l-2 37 14 -25 15
-25 1 27 c0 15 5 30 11 34 15 9 7 242 -9 270 -10 16 -12 10 -13 -36 -3 -121
-14 -120 -31 4 -10 66 -22 124 -28 130 -5 5 -10 16 -10 23 0 7 -9 22 -20 33
-11 11 -20 18 -20 15z"/>
<path d="M7610 3255 c0 -20 -8 -50 -17 -68 -16 -30 -18 -30 -21 -9 -5 32 -16
27 -32 -13 -7 -19 -21 -37 -30 -40 -12 -4 -16 -13 -12 -30 2 -14 -2 -31 -12
-40 -9 -9 -16 -25 -16 -36 0 -11 -11 -24 -26 -31 -25 -12 -25 -14 -21 -82 3
-39 3 -61 1 -48 -6 24 -19 29 -30 11 -4 -8 -9 -7 -15 2 -7 11 -9 11 -9 1 0 -7
-4 -11 -9 -8 -5 3 -7 14 -5 24 3 9 -2 38 -10 65 -11 38 -12 47 -1 47 15 0 -15
71 -44 104 -9 10 -15 20 -13 22 1 2 2 10 2 17 0 9 -3 8 -9 -2 -5 -7 -8 -41 -7
-75 1 -50 9 -77 46 -153 25 -51 50 -93 57 -93 7 0 13 -1 13 -2 1 -2 3 -43 6
-93 4 -69 2 -86 -6 -72 -7 10 -14 43 -17 72 -3 30 -10 55 -14 55 -5 0 -9 -4
-9 -10 0 -5 -6 -10 -13 -10 -8 0 -27 32 -42 71 -16 38 -32 72 -37 75 -19 12
-6 -38 28 -105 29 -58 36 -84 37 -138 1 -45 -2 -68 -10 -70 -9 -3 -13 6 -13
25 0 16 -14 53 -30 83 -30 54 -30 55 -29 202 1 81 -2 151 -6 155 -4 4 -6 0 -5
-8 6 -40 0 -59 -16 -53 -12 4 -15 2 -12 -8 3 -8 11 -13 18 -11 8 2 10 -3 6
-13 -3 -9 -7 -44 -7 -78 -1 -44 -3 -53 -8 -33 -10 49 -29 43 -33 -11 -2 -33 2
-52 12 -60 13 -12 13 -15 -2 -27 -21 -15 -23 -27 -5 -24 7 2 13 -10 14 -32 2
-28 1 -31 -7 -15 -6 15 -9 7 -9 -33 -1 -29 -5 -61 -10 -70 -5 -10 -12 -53 -16
-97 -3 -44 -12 -102 -20 -130 -8 -27 -18 -75 -24 -105 -14 -80 -46 -200 -64
-240 l-15 -35 -2 40 -1 40 -15 -53 c-7 -29 -19 -62 -25 -73 -5 -11 -17 -59
-25 -107 -17 -99 -42 -190 -59 -212 -21 -28 -35 -71 -35 -108 -1 -20 -7 -48
-14 -61 -24 -43 -7 89 18 139 12 25 30 77 39 115 23 98 60 336 53 343 -3 3 -6
0 -6 -7 0 -7 -4 -10 -8 -7 -7 4 -27 -89 -58 -269 -5 -32 -13 -60 -39 -140 -9
-27 -20 -72 -25 -100 -15 -100 -67 -284 -109 -390 -11 -27 -26 -71 -33 -98 -7
-26 -16 -47 -20 -47 -4 0 -8 -7 -8 -15 0 -18 -57 -199 -77 -245 -9 -21 -18
-29 -20 -22 -3 8 0 19 6 25 6 6 11 18 11 26 0 30 -29 -23 -30 -54 0 -16 -16
-55 -35 -85 -19 -31 -29 -57 -24 -61 16 -9 -1 -38 -24 -41 -19 -3 -22 -9 -19
-38 8 -89 47 -158 101 -175 29 -9 53 -62 47 -103 -7 -47 2 -59 85 -105 36 -20
75 -47 87 -60 18 -19 33 -23 87 -25 59 -2 65 -1 65 17 0 62 -56 126 -154 175
-69 35 -123 76 -98 76 6 0 14 -5 17 -11 4 -6 45 -29 92 -51 100 -48 152 -106
153 -170 0 -36 1 -38 34 -38 l34 0 -9 38 c-5 20 -8 44 -8 52 1 23 28 -42 29
-67 0 -19 6 -23 35 -23 41 0 37 -20 79 356 9 72 19 139 22 149 7 17 8 17 21
-1 12 -16 13 -16 13 -1 0 9 4 17 9 17 5 0 5 -15 -1 -34 -8 -24 -8 -54 -1 -95
7 -42 6 -64 -1 -72 -8 -9 -6 -10 7 -6 12 5 17 1 17 -13 0 -13 -5 -17 -15 -14
-9 4 -16 -3 -20 -19 -9 -32 -3 -72 10 -72 20 0 36 -17 31 -32 -9 -21 54 -84
76 -77 16 5 17 0 12 -40 -5 -30 -3 -46 4 -46 6 0 12 14 14 32 2 21 9 32 20 34
24 3 31 -11 13 -26 -19 -16 -19 -40 -1 -40 8 0 16 10 18 23 2 16 11 23 31 25
16 2 31 10 34 18 3 8 12 14 20 14 12 0 14 -9 11 -40 -2 -22 1 -39 6 -37 5 2
10 16 12 31 4 34 4 35 34 38 21 3 26 -3 34 -34 11 -42 46 -55 46 -18 0 26 16
26 30 -1 9 -16 14 -18 26 -8 10 8 14 8 14 0 0 -8 41 -11 131 -11 104 0 129 3
122 13 -6 6 -15 26 -21 42 l-11 30 2 -35 c2 -31 -1 -35 -24 -38 -42 -5 -56 18
-52 83 4 62 -14 105 -43 105 -13 0 -13 -5 4 -32 20 -33 23 -88 8 -135 -9 -29
-21 -29 -52 2 -14 14 -30 23 -35 20 -5 -4 -9 1 -9 9 0 10 6 13 15 10 9 -4 16
0 17 7 0 8 2 25 3 39 2 14 6 32 9 40 4 10 -9 27 -38 50 -49 38 -69 71 -59 96
6 17 -40 68 -51 57 -3 -4 -6 0 -6 7 0 25 -15 -2 -16 -28 -4 -82 -7 -83 -22 -7
-14 72 -17 76 -22 45 l-5 -35 -19 28 c-10 15 -24 44 -31 64 -11 32 -11 39 3
49 12 9 14 23 9 75 -15 142 -19 165 -33 180 -8 8 -14 26 -14 40 0 13 -11 51
-25 84 -13 33 -25 68 -25 78 0 10 -8 26 -17 35 -15 16 -16 14 -10 -30 4 -26
16 -74 27 -107 11 -33 20 -71 20 -85 0 -13 5 -26 10 -28 6 -2 18 -52 26 -111
15 -99 15 -110 0 -126 -14 -16 -14 -23 4 -85 20 -71 18 -93 -12 -114 -24 -17
-23 -53 2 -75 20 -17 26 -59 14 -105 -7 -25 -32 -29 -41 -6 -5 13 -7 13 -14 2
-13 -21 -47 20 -54 67 -3 22 -8 55 -11 74 -6 29 -2 37 29 66 l36 34 -13 45
c-8 25 -12 47 -9 50 3 3 -2 15 -10 27 -9 11 -13 29 -10 38 3 12 0 11 -11 -4
-11 -13 -15 -30 -11 -50 5 -28 4 -28 -5 -6 -6 14 -19 31 -30 38 -10 7 -21 23
-23 36 l-4 22 -2 -22 c-1 -28 -12 -29 -36 -3 -18 20 -18 22 3 73 27 65 28 99
2 122 -19 18 -20 26 -14 125 7 112 -1 144 -47 193 -21 23 -25 67 -9 83 7 7 8
19 1 37 -14 35 -10 190 4 176 6 -6 12 -48 14 -94 1 -47 6 -85 10 -85 3 0 5 26
3 58 -2 32 -2 73 0 92 l3 35 16 -30 c11 -19 18 -63 21 -120 4 -90 12 -120 28
-110 4 3 3 27 -4 53 -7 26 -11 72 -8 103 3 47 0 60 -22 93 -14 22 -26 49 -26
61 0 12 -3 43 -6 68 -6 39 -3 48 16 64 12 10 31 27 41 37 30 31 35 10 10 -40
-20 -42 -20 -48 -6 -63 10 -13 15 -39 15 -88 0 -49 6 -84 20 -114 11 -24 20
-65 20 -90 0 -81 12 -139 27 -139 25 0 5 181 -29 257 -14 32 -17 55 -12 92 9
66 20 82 40 56 12 -16 16 -17 23 -6 10 16 20 3 23 -32 2 -20 8 -24 40 -25 34
-2 38 1 38 23 0 14 8 29 21 35 18 10 19 23 1 26 -34 5 -94 44 -98 64 -3 20
-29 58 -35 54 -5 -3 -8 16 -8 43 1 26 4 37 6 24 l5 -24 12 24 c6 13 20 26 31
27 13 2 30 25 49 62 23 48 27 65 21 99 -4 23 -14 48 -22 57 -9 9 -17 41 -21
80 -2 35 -9 67 -13 70 -5 3 -9 15 -9 28 0 12 -5 27 -12 34 -22 22 -9 100 27
172 19 38 35 79 35 90 0 11 9 43 20 72 11 29 20 60 20 68 0 8 11 27 25 42 23
25 24 28 8 43 -11 12 -28 16 -55 13 -40 -4 -52 6 -18 15 11 3 20 12 20 21 0 9
7 16 16 16 11 0 14 5 10 16 -4 12 -2 15 9 10 10 -3 17 3 21 19 3 14 10 25 14
25 16 0 17 84 1 100 -13 13 -14 13 -8 -2 3 -10 2 -20 -3 -23 -6 -4 -10 5 -10
19 0 13 -5 26 -12 28 -7 3 -9 12 -5 22 4 9 11 14 17 11 5 -3 10 -2 10 4 0 5
-6 11 -12 14 -10 3 -9 12 5 37 19 36 22 67 7 106 -8 21 -6 36 11 75 12 26 25
46 29 44 4 -3 11 -34 15 -70 6 -58 9 -64 22 -53 12 10 14 27 8 94 -4 56 -3 84
4 89 12 7 11 85 -1 85 -5 0 -8 -16 -8 -35z m-808 -2014 c-5 -14 -7 -59 -5 -98
3 -50 0 -80 -10 -100 -19 -37 -26 -83 -28 -171 -1 -67 1 -77 34 -130 45 -74
50 -94 32 -118 -8 -10 -15 -28 -15 -39 0 -11 -4 -27 -9 -34 -8 -12 -12 -9 -22
15 -7 16 -28 48 -46 71 -41 51 -53 83 -53 137 0 63 39 208 63 234 15 16 22 39
25 85 2 34 6 69 9 77 4 8 7 26 9 40 1 14 6 50 11 80 7 52 8 53 11 17 2 -22 -1
-51 -6 -66z m-176 -496 c-19 -44 -21 -107 -5 -138 7 -12 29 -38 50 -57 36 -34
69 -95 69 -129 0 -10 15 -25 33 -34 115 -60 150 -89 178 -142 6 -11 -7 -2 -28
20 -27 30 -60 49 -117 70 -54 21 -81 37 -86 52 -11 26 -32 41 -38 25 -2 -7
-12 -12 -23 -12 -13 0 -19 7 -18 23 1 16 2 18 6 5 7 -28 23 -21 23 10 0 26
-18 60 -48 91 -31 32 -42 59 -38 97 4 51 49 194 54 172 2 -9 -4 -33 -12 -53z"/>
<path d="M3830 3230 c-13 -8 -15 -59 -16 -349 0 -187 2 -338 6 -336 4 2 5 18
2 35 -3 20 0 30 8 30 10 0 12 47 9 213 -2 118 -8 215 -14 219 -5 4 -5 15 2 30
10 19 27 168 20 168 -1 0 -9 -5 -17 -10z"/>
<path d="M976 3085 c4 -17 12 -33 18 -37 8 -5 7 -8 -2 -8 -13 0 -9 -35 8 -75
16 -35 80 -250 80 -266 0 -8 4 -19 9 -25 5 -5 16 -33 26 -62 9 -29 18 -52 20
-50 2 2 -3 38 -11 81 -8 44 -13 84 -12 89 2 6 21 -31 42 -83 21 -52 45 -107
53 -124 18 -40 142 -174 143 -155 0 9 -27 43 -59 77 -74 76 -86 99 -117 226
-14 56 -36 124 -50 150 -26 53 -29 61 -15 53 11 -7 -22 87 -38 106 -43 53 -61
77 -61 85 0 6 -9 18 -21 29 -20 18 -20 18 -13 -11z"/>
<path d="M7907 3023 c-14 -13 -3 -138 12 -129 3 2 6 -42 6 -97 0 -106 9 -153
24 -128 5 8 11 -2 16 -31 l9 -43 7 70 c17 156 22 295 10 295 -6 0 -11 -12 -11
-28 0 -29 -24 -72 -41 -72 -6 0 -8 9 -4 19 3 11 2 22 -4 25 -5 3 -9 31 -10 62
0 58 -3 69 -14 57z"/>
<path d="M7591 2650 c-10 -111 -42 -208 -102 -314 -6 -10 -11 -39 -11 -64 0
-31 -5 -50 -16 -59 -13 -9 -14 -12 -3 -13 8 0 4 -8 -11 -19 -20 -16 -23 -26
-20 -60 3 -26 9 -41 18 -41 7 0 17 -7 22 -16 6 -10 7 4 4 40 -4 51 -3 56 19
65 20 7 21 10 8 16 -15 6 -15 12 -4 53 7 26 16 56 20 67 5 16 5 17 -4 5 -5 -8
-13 -11 -16 -8 -4 4 0 16 8 28 11 16 16 18 21 8 3 -7 2 0 -1 16 -4 18 -2 27 4
23 12 -8 70 116 75 158 2 17 6 32 10 35 3 3 10 18 13 33 6 21 4 27 -8 27 -9 0
-18 8 -20 18 -3 12 -5 13 -6 2z"/>
<path d="M940 2640 c0 -5 5 -10 11 -10 7 0 9 -9 6 -22 -6 -22 27 -108 41 -108
4 0 15 -17 25 -37 17 -39 8 -69 -20 -59 -27 11 -27 -27 0 -50 30 -26 33 -34
13 -34 -30 0 -24 -62 12 -140 41 -88 55 -187 29 -209 -19 -15 -63 -10 -59 7 3
16 -9 15 -36 -4 -18 -13 -36 -15 -79 -9 -50 6 -54 5 -51 -12 3 -14 13 -18 48
-18 43 0 44 -1 54 -40 5 -22 18 -48 29 -57 11 -10 17 -19 14 -19 -4 -1 -10 -2
-14 -3 -22 -4 -62 -40 -72 -64 -5 -15 -11 -61 -13 -102 -3 -69 -1 -75 17 -75
18 0 20 8 25 95 4 80 8 95 23 98 14 3 17 -4 17 -40 0 -24 5 -49 11 -55 15 -15
7 -99 -9 -95 -9 2 -10 -3 -4 -15 15 -29 13 -123 -3 -198 -13 -62 -20 -180 -8
-131 4 15 7 16 14 5 6 -10 9 -3 9 21 0 19 7 64 15 100 8 36 14 91 15 122 0 61
11 78 37 57 13 -11 15 -31 10 -119 -3 -58 -8 -114 -12 -125 -4 -11 -3 -16 2
-10 11 14 63 19 63 6 0 -22 20 -10 26 14 4 14 11 24 18 22 15 -5 20 -57 7 -70
-8 -8 -11 -6 -11 8 0 13 -9 7 -32 -23 -18 -23 -39 -44 -48 -47 -32 -11 -55
-59 -62 -130 -4 -38 -10 -95 -14 -126 l-6 -56 46 3 c41 3 45 1 31 -12 -8 -8
-32 -15 -53 -16 -32 0 -42 -6 -56 -29 -9 -16 -17 -32 -18 -36 -5 -26 -43 -73
-59 -73 -29 0 -23 -16 12 -32 23 -12 27 -17 15 -21 -9 -4 -16 -1 -16 5 0 6 -3
8 -6 5 -4 -4 1 -18 10 -31 24 -37 20 -73 -9 -92 -24 -15 -51 -11 -40 6 3 5 1
28 -5 51 -9 31 -14 39 -21 28 -15 -23 -11 18 5 54 35 81 56 137 55 149 0 7 -7
-2 -15 -19 -15 -34 -28 -46 -17 -16 6 16 4 16 -9 5 -9 -7 -20 -27 -23 -43 -9
-39 -28 -46 -70 -26 -28 13 -35 14 -45 2 -13 -15 1 -28 22 -20 33 13 61 -11
74 -61 20 -74 18 -111 -7 -125 -12 -6 -30 -9 -40 -6 -24 7 -87 -25 -81 -42 3
-9 7 -9 16 2 6 8 24 18 40 21 l29 7 -5 -46 c-5 -39 -3 -46 11 -43 10 2 20 20
26 45 13 52 24 64 53 56 21 -5 23 -10 17 -43 l-6 -38 48 6 c54 6 63 14 63 60
0 25 4 32 19 32 11 0 23 5 26 11 4 5 14 9 23 7 13 -2 16 -12 14 -40 -2 -20 1
-39 7 -42 9 -6 2 -28 -32 -95 -20 -41 -37 -37 -31 6 l5 38 -13 -34 c-15 -40
-44 -58 -30 -19 10 27 5 58 -9 58 -5 0 -9 -3 -9 -7 0 -12 -61 -44 -71 -37 -5
3 -9 -3 -9 -14 0 -22 -25 -47 -57 -56 -23 -7 -27 -1 -24 36 1 9 -3 19 -9 23
-5 3 -10 -1 -10 -10 0 -25 -35 -56 -69 -61 -17 -3 -31 -1 -31 5 0 6 -13 2 -30
-7 -18 -10 -30 -25 -30 -37 0 -19 2 -19 18 3 24 31 67 27 67 -5 0 -13 4 -23 8
-23 4 0 12 0 17 0 6 0 10 8 10 18 0 10 6 26 13 36 10 14 18 15 40 7 18 -7 25
-15 21 -26 -3 -8 -1 -15 4 -15 6 0 12 7 14 16 3 14 7 13 31 -6 31 -25 35 -39
10 -41 -10 -1 -4 -4 12 -8 34 -7 47 8 38 46 -3 13 -2 30 1 40 6 15 8 14 20 -2
12 -17 13 -17 19 4 7 29 35 27 43 -4 18 -72 13 -88 -42 -147 -30 -31 -54 -53
-54 -49 0 5 11 20 25 35 14 15 25 34 25 43 0 14 -3 14 -20 -2 -19 -17 -20 -17
-20 0 0 13 -5 15 -17 9 -10 -4 -28 -8 -41 -8 -12 -1 -25 -9 -28 -18 -3 -10
-11 -15 -20 -11 -8 3 -14 -1 -14 -10 0 -8 -9 -26 -20 -40 -16 -20 -19 -34 -14
-71 l7 -46 48 0 c37 0 49 4 49 15 0 8 5 15 10 15 6 0 10 -7 10 -15 0 -8 7 -15
15 -15 14 0 13 3 -2 25 -10 13 -21 25 -25 25 -12 0 -9 30 2 30 6 0 10 -4 10
-8 0 -5 12 -15 26 -22 17 -9 24 -20 21 -32 -5 -16 2 -18 49 -18 57 0 80 18 55
43 -6 6 -11 17 -11 24 0 20 24 15 38 -7 15 -25 34 -26 25 -2 -5 13 0 11 20 -7
15 -14 27 -30 27 -38 0 -7 5 -13 11 -13 10 0 10 17 -2 59 -2 7 2 16 9 18 6 3
12 -2 12 -11 0 -25 22 -66 37 -66 7 0 13 7 13 15 0 8 5 15 10 15 6 0 10 -7 10
-15 0 -22 138 -22 147 1 10 27 -16 90 -67 160 -46 62 -50 72 -43 104 4 19 6
56 5 82 -3 51 3 59 23 32 10 -14 21 -2 75 82 l64 99 7 155 c4 85 4 161 -1 170
-12 22 -45 170 -65 284 -15 91 -15 101 0 132 9 19 22 52 30 72 l14 37 0 -46
c2 -129 41 -266 106 -374 56 -92 61 -111 53 -193 -4 -42 -10 -92 -14 -109 -3
-18 -2 -33 3 -33 15 0 32 109 30 188 -2 58 0 69 10 56 12 -16 12 -141 1 -160
-3 -5 -8 -26 -12 -47 -10 -53 -28 -90 -37 -76 -9 15 -39 -78 -44 -133 -4 -68
-16 -118 -26 -112 -15 9 -10 -80 6 -126 8 -23 15 -63 15 -87 0 -25 8 -74 17
-109 17 -62 18 -64 50 -64 l33 0 -21 52 c-27 69 -38 132 -45 253 -7 127 7 191
80 362 59 138 75 212 57 264 -6 17 -35 68 -65 113 -43 63 -60 99 -75 161 -20
83 -47 167 -63 198 -18 34 -28 132 -29 271 -1 120 -3 139 -17 143 -15 3 -17
20 -17 119 0 62 -3 114 -7 114 -12 0 -19 -61 -16 -135 3 -64 1 -70 -17 -73
-22 -3 -21 -14 -23 225 -2 150 -24 162 -42 23 l-7 -55 -2 47 c0 26 -6 50 -11
53 -11 7 -6 -63 11 -163 9 -55 -1 -102 -22 -102 -6 0 -8 7 -5 16 17 43 17 70
1 141 -13 59 -16 103 -12 182 6 95 4 106 -16 135 -12 17 -25 33 -28 36 -3 3
-12 23 -19 45 -16 50 -34 72 -25 30 6 -29 6 -29 -9 -11 -12 15 -16 16 -16 5 0
-8 -9 4 -19 26 -10 22 -27 48 -39 58 -11 10 -26 31 -32 47 -7 16 -15 29 -19
28 -24 -3 -41 5 -46 22 -7 21 -25 28 -25 10z m273 -1489 c-15 -50 -5 -90 26
-114 41 -30 53 -107 21 -135 -19 -16 -20 -24 -14 -118 6 -96 5 -103 -14 -113
-14 -7 -23 -8 -27 -1 -13 21 -23 -1 -15 -31 6 -21 5 -44 -5 -72 -13 -39 -13
-41 16 -68 31 -29 35 -48 18 -80 -7 -14 -7 -35 0 -67 11 -54 -5 -92 -39 -92
-11 0 -20 -4 -20 -10 0 -5 -8 -17 -19 -27 -10 -10 -21 -36 -24 -57 -6 -39 -31
-76 -43 -63 -3 3 3 18 15 33 12 15 19 30 16 33 -4 3 -9 1 -13 -5 -25 -38 -51
-62 -77 -71 -25 -8 -30 -15 -29 -41 2 -39 -33 -53 -55 -22 -7 11 -21 20 -31
20 -23 0 -34 29 -14 37 8 3 21 -3 29 -13 14 -18 16 -18 26 -2 5 10 17 18 25
18 18 0 109 93 130 132 10 19 11 34 5 50 -10 23 -10 23 -10 -4 -1 -16 -15 -41
-36 -64 -19 -20 -35 -40 -35 -43 -1 -9 -45 -40 -74 -51 -39 -14 -33 7 15 56
41 42 46 58 39 143 -2 24 3 38 18 50 28 21 40 57 42 122 3 92 1 109 -14 109
-14 0 -28 57 -19 73 9 16 33 -16 33 -43 0 -16 5 -30 12 -32 7 -3 13 -23 13
-50 0 -30 6 -53 18 -66 25 -28 15 -80 -18 -92 -21 -8 -23 -13 -15 -41 13 -44
20 -48 20 -12 0 17 8 37 19 47 32 29 37 74 11 101 -12 13 -20 27 -17 32 3 5 8
27 11 50 5 30 3 42 -7 46 -36 14 -21 166 20 207 13 13 14 8 9 -50 -3 -36 -5
-68 -5 -72 -1 -5 -8 -8 -16 -8 -21 0 -19 -17 4 -23 13 -3 21 -18 26 -48 7 -40
9 -42 16 -20 6 14 5 37 0 57 -13 48 6 192 30 223 24 30 24 47 -1 94 -18 34
-19 44 -9 100 6 34 13 80 16 102 6 59 13 75 22 50 4 -10 2 -40 -6 -64z m-54
-16 c-4 -16 -10 -56 -13 -88 -5 -48 -3 -59 13 -73 11 -10 17 -23 14 -30 -3 -8
2 -14 11 -14 26 0 20 -12 -44 -83 -33 -38 -60 -66 -60 -64 0 2 9 22 20 45 29
59 25 61 -16 8 -42 -55 -58 -55 -21 -1 22 32 25 45 20 90 -4 37 -2 55 7 60 10
6 12 2 8 -13 -4 -12 -3 -24 2 -27 7 -4 30 120 30 163 0 9 5 35 11 57 10 33 13
37 19 20 4 -11 4 -33 -1 -50z"/>
<path d="M1365 2470 c3 -25 11 -101 20 -170 50 -418 53 -451 61 -550 15 -205
23 -256 49 -312 14 -31 27 -65 29 -75 4 -23 26 -157 32 -200 3 -18 21 -56 40
-85 62 -91 94 -159 94 -198 0 -38 -22 -110 -60 -193 -12 -27 -20 -50 -18 -53
4 -4 51 100 82 184 23 62 20 90 -20 167 -20 39 -42 80 -48 92 -6 13 -14 23
-18 23 -16 0 -30 46 -49 153 -11 62 -22 128 -26 147 -3 19 -15 50 -25 69 -13
23 -22 68 -29 145 -9 109 -18 194 -39 351 -5 44 -13 100 -16 125 -3 25 -12 90
-19 145 -8 55 -17 132 -21 170 -4 39 -10 79 -15 90 -5 13 -6 4 -4 -25z"/>
<path d="M6473 2053 c-7 -2 -13 -16 -13 -30 0 -17 -4 -23 -13 -20 -10 4 -17
-25 -27 -117 -8 -66 -14 -143 -14 -171 -1 -27 -3 -52 -6 -55 -3 -3 -10 -20
-17 -37 -13 -39 -2 -43 51 -18 26 13 32 21 34 53 2 45 17 142 37 242 8 41 17
94 20 118 5 39 3 42 -17 41 -13 0 -29 -3 -35 -6z"/>
<path d="M4968 2023 c-7 -35 4 -63 42 -101 35 -37 41 -39 116 -46 43 -3 98 -9
122 -12 l42 -6 -3 58 c-2 55 -4 59 -27 60 -14 1 -29 3 -35 4 -5 2 -21 4 -35 6
-14 2 -48 6 -76 10 -47 6 -53 4 -59 -15 -8 -26 -22 -27 -29 -3 -4 11 -17 29
-30 41 -23 21 -24 21 -28 4z"/>
<path d="M6537 1610 c-3 -11 -1 -38 4 -61 7 -31 6 -60 -6 -110 -8 -37 -15
-109 -15 -158 0 -50 -6 -109 -14 -133 -8 -24 -16 -74 -19 -113 -2 -38 -14
-101 -25 -140 -12 -38 -35 -131 -52 -205 -34 -150 -69 -260 -83 -260 -5 0 -6
8 -2 18 3 9 14 46 22 82 9 36 26 101 39 145 61 217 91 393 103 595 4 69 11
131 15 138 4 7 4 30 0 50 l-8 37 -7 -55 c-4 -30 -7 -98 -8 -151 -1 -58 -7
-114 -16 -139 -8 -23 -15 -66 -15 -94 0 -28 -11 -91 -24 -141 -13 -49 -27
-110 -31 -135 -3 -25 -12 -61 -19 -80 -8 -19 -26 -88 -41 -153 -15 -64 -32
-120 -38 -124 -7 -4 -8 0 -2 13 4 10 18 69 31 129 13 61 32 139 44 175 11 36
20 75 20 88 0 12 6 38 14 57 8 18 17 65 20 102 3 38 12 107 20 153 8 47 16
147 18 222 3 125 1 138 -16 151 -17 12 -17 14 -2 20 15 6 24 47 9 47 -27 0
-73 -27 -73 -42 0 -10 5 -18 10 -18 6 0 10 -15 10 -34 0 -19 6 -37 13 -39 7
-3 5 -6 -5 -6 -13 -1 -18 8 -20 32 -1 17 -5 -15 -8 -73 -6 -96 -17 -201 -39
-380 -5 -36 -13 -78 -19 -95 -6 -16 -20 -79 -32 -140 -41 -207 -88 -420 -99
-447 -6 -15 -22 -44 -35 -65 -14 -21 -32 -59 -40 -85 -12 -43 -35 -78 -50 -78
-9 0 -7 38 2 42 4 2 22 34 40 73 25 51 42 111 64 230 16 88 36 195 44 238 8
42 20 112 28 155 8 42 20 91 27 107 7 17 16 82 21 145 23 305 25 346 17 354
-15 17 -26 -37 -33 -159 -10 -177 -22 -283 -39 -345 -8 -30 -20 -86 -26 -125
-17 -97 -28 -156 -47 -255 -9 -47 -22 -123 -29 -170 -8 -65 -21 -104 -53 -168
-23 -45 -42 -91 -42 -101 0 -10 -7 -35 -15 -56 -17 -40 -12 -75 11 -75 10 0
14 13 14 44 0 25 5 48 10 51 6 4 10 -6 10 -22 0 -15 5 -35 10 -43 7 -12 10 -8
10 15 l1 30 18 -22 c24 -29 31 -29 23 -1 -3 14 -2 19 6 14 7 -4 12 -19 12 -34
0 -27 1 -27 59 -27 33 0 55 3 49 6 -7 4 -7 9 1 13 6 4 18 0 27 -8 8 -9 21 -16
27 -16 8 0 8 3 2 8 -5 4 -15 16 -21 27 -9 15 -20 19 -45 17 -19 -1 -38 -7 -43
-12 -16 -16 -23 -12 -28 15 -3 14 -1 25 5 25 5 0 7 9 4 21 -7 25 28 169 44
184 11 10 10 0 -8 -96 -5 -26 17 -59 40 -59 8 0 7 4 -1 12 -15 15 -16 82 -2
108 6 10 11 32 13 48 2 15 11 39 20 52 9 14 17 34 17 45 0 16 2 17 10 5 11
-18 11 -18 47 60 17 36 45 130 62 210 18 80 40 174 51 210 21 74 40 174 40
211 0 13 7 44 16 68 10 30 13 61 8 100 -4 38 -1 77 10 121 19 75 19 250 0 250
-7 0 -14 -9 -17 -20z"/>
<path d="M2589 1550 c-32 -35 -47 -116 -28 -151 8 -16 11 -62 9 -149 -6 -196
-1 -395 9 -421 8 -19 10 -7 10 52 1 41 6 80 11 85 14 14 1 74 -16 74 -8 0 -14
5 -14 10 0 6 4 10 9 10 6 0 13 -4 16 -10 13 -20 25 -9 25 23 0 40 -8 51 -27
35 -7 -6 -17 -7 -21 -3 -4 4 -1 10 6 12 6 3 12 18 12 33 0 54 28 42 31 -13 2
-23 13 38 25 132 6 43 5 52 -6 46 -10 -6 -12 4 -8 53 4 38 2 64 -5 71 -9 9 -8
17 1 31 6 11 12 31 12 44 0 13 7 26 15 30 8 3 15 13 15 22 0 13 -3 14 -15 4
-10 -9 -15 -9 -15 -1 0 19 -24 11 -51 -19z"/>
<path d="M1810 1390 c-6 -45 4 -145 16 -168 8 -15 14 -34 14 -42 0 -9 4 -20 9
-25 11 -12 31 -128 31 -176 0 -19 -12 -70 -26 -114 -30 -94 -28 -117 22 -273
18 -59 34 -116 34 -127 0 -15 2 -17 9 -6 7 11 10 11 15 0 7 -15 -2 76 -10 104
-3 9 -9 17 -14 17 -5 0 -7 7 -4 15 8 20 -25 117 -37 109 -6 -3 -7 5 -3 20 3
14 1 40 -5 59 -9 25 -9 42 0 63 32 81 38 126 28 211 -5 46 -16 95 -25 107 -8
13 -14 28 -13 32 4 15 -13 64 -21 64 -4 0 -6 24 -5 53 1 50 -11 113 -15 77z"/>
<path d="M7376 1342 c-5 -8 -6 -42 -3 -75 l6 -62 -17 48 c-19 52 -36 56 -20 4
21 -66 38 -161 39 -213 1 -30 6 -54 11 -54 6 0 7 36 3 93 -6 69 -4 89 4 81 7
-6 15 -50 18 -98 l6 -87 43 -30 c48 -32 64 -36 64 -14 0 8 -4 15 -10 15 -5 0
-10 5 -10 11 0 5 5 7 12 3 7 -5 8 -3 4 5 -5 7 -9 47 -11 89 -2 80 -35 189 -55
185 -5 -2 -10 4 -10 13 0 8 -4 13 -9 10 -5 -3 -14 8 -21 24 -7 17 -16 30 -20
30 -5 0 -10 8 -12 18 -3 13 -5 14 -12 4z"/>
<path d="M4572 1313 c-6 -16 -18 -68 -27 -117 -14 -73 -15 -101 -6 -165 17
-118 15 -598 -4 -701 -13 -69 -13 -98 -4 -157 7 -40 9 -87 7 -105 -3 -18 -2
-42 2 -53 12 -34 20 95 10 167 -7 50 -6 87 4 145 24 130 27 236 13 506 -11
217 -11 272 0 345 8 48 17 104 20 125 7 44 0 48 -15 10z"/>
<path d="M1913 1298 c3 -18 11 -53 18 -78 16 -60 18 -155 6 -261 -9 -82 -7
-93 21 -195 16 -60 33 -127 37 -149 4 -21 13 -52 21 -67 8 -15 15 -49 15 -75
1 -43 2 -45 9 -18 l8 30 1 -33 c1 -20 5 -31 11 -27 6 4 17 1 25 -5 12 -10 15
-9 15 8 0 12 -9 23 -20 27 -20 6 -37 46 -26 64 3 5 -1 16 -9 25 -8 8 -12 17
-7 20 12 7 29 -7 35 -29 3 -12 5 -4 6 18 1 33 -1 37 -25 37 -14 0 -23 4 -19
10 4 6 10 8 15 5 4 -3 12 1 17 8 12 14 -3 77 -17 77 -6 0 -10 11 -10 25 0 14
5 25 10 25 6 0 10 -4 10 -10 0 -5 5 -10 10 -10 6 0 10 7 10 15 0 8 -4 15 -9
15 -5 0 -12 11 -15 25 -4 14 -13 25 -21 25 -8 0 -15 7 -15 15 0 8 -4 15 -9 15
-5 0 -6 20 -3 45 4 36 2 45 -11 45 -8 0 -18 -8 -21 -17 -6 -15 -8 -15 -16 -3
-10 15 -4 51 10 60 12 9 28 174 18 193 -7 14 -5 24 8 38 13 15 15 22 6 31 -7
7 -12 21 -12 32 0 19 -55 76 -73 76 -5 0 -7 -15 -4 -32z"/>
<path d="M5760 1164 c0 -21 -4 -33 -10 -29 -5 3 -10 1 -10 -5 0 -6 -4 -9 -9
-6 -12 8 -21 -85 -10 -104 7 -12 8 -11 9 5 0 15 3 16 12 7 10 -10 10 -17 0
-32 -7 -11 -10 -31 -6 -44 3 -14 -1 -39 -11 -60 -19 -40 -15 -52 19 -58 21 -4
26 0 29 21 4 22 5 21 3 -4 -1 -23 -6 -31 -23 -33 -28 -4 -38 -40 -42 -156 -1
-23 -5 -27 -21 -23 -25 6 -26 -14 -4 -53 11 -18 14 -34 9 -46 -8 -17 -9 -16
-13 6 -8 49 -18 39 -19 -18 -1 -38 2 -51 7 -37 6 15 9 8 9 -25 1 -31 -2 -40
-8 -31 -7 11 -11 6 -14 -20 -3 -19 -11 -65 -17 -104 -8 -49 -8 -71 -1 -73 6
-2 11 -11 11 -19 0 -9 -6 -13 -14 -10 -10 4 -15 -4 -18 -29 -2 -18 1 -35 7
-37 6 -3 3 -12 -7 -24 -14 -15 -15 -22 -6 -31 9 -9 6 -16 -10 -30 -12 -11 -22
-29 -22 -41 0 -18 6 -21 48 -21 l48 0 22 93 c39 164 52 249 57 382 3 72 11
148 16 169 6 21 14 82 19 135 5 53 16 157 24 231 18 160 20 193 6 185 -5 -3
-11 -32 -11 -63 -1 -31 -4 -47 -6 -34 -4 22 -23 32 -23 11 0 -5 -4 -8 -9 -5
-5 3 -12 -5 -15 -19 -4 -14 -11 -25 -17 -25 -7 0 -9 9 -5 23 3 12 6 25 6 30 0
4 7 7 15 7 11 0 15 11 15 40 0 22 -2 40 -5 40 -3 0 -5 -16 -5 -36z"/>
<path d="M4481 1075 c-1 -63 -6 -127 -12 -142 -6 -16 -15 -140 -20 -278 -9
-231 -16 -325 -34 -430 -4 -25 -1 -62 9 -100 9 -32 16 -74 16 -92 0 -22 5 -33
15 -33 11 0 14 14 13 67 -1 38 -4 59 -8 48 -6 -18 -7 -18 -12 3 -3 12 -5 60
-4 107 1 63 6 89 16 96 10 7 11 12 3 15 -11 5 -9 76 3 95 3 6 5 112 5 236 -1
125 2 229 7 232 11 8 23 279 12 286 -4 2 -8 -47 -9 -110z"/>
<path d="M6188 1060 c-20 -57 -29 -105 -53 -255 -14 -93 -33 -204 -41 -245 -8
-41 -19 -104 -25 -140 -5 -36 -14 -90 -18 -121 -5 -31 -23 -91 -40 -133 -34
-86 -34 -86 -23 -86 11 0 46 70 67 134 9 27 17 79 18 117 1 38 5 69 10 69 4 0
7 15 7 33 0 18 7 57 16 86 8 29 19 84 24 124 18 150 41 284 56 338 9 30 14 64
12 75 -4 15 -6 16 -10 4z"/>
<path d="M5904 902 c2 -23 1 -40 -4 -37 -4 3 -10 -11 -12 -30 -2 -19 0 -35 4
-35 4 0 8 -9 8 -20 0 -11 -6 -20 -13 -20 -12 0 -29 -88 -43 -215 -1 -16 -7
-61 -13 -100 -6 -38 -11 -96 -11 -127 0 -56 -11 -126 -33 -203 -6 -22 -10 -45
-9 -52 2 -6 -2 -14 -8 -18 -14 -9 -13 -45 3 -45 17 0 55 136 67 240 5 47 22
173 37 280 15 107 27 225 26 263 -1 38 3 65 8 61 5 -3 9 8 9 25 0 16 3 37 7
47 4 11 3 15 -4 11 -6 -4 -14 -1 -17 5 -3 7 -4 -6 -2 -30z"/>
<path d="M7442 874 c-1 -22 4 -49 13 -60 8 -10 15 -34 15 -52 0 -18 7 -40 15
-48 8 -9 15 -34 16 -57 0 -23 6 -73 13 -112 11 -57 14 -62 14 -30 0 22 -3 77
-6 122 -6 66 -5 79 6 71 8 -7 10 -22 6 -43 -3 -17 1 -56 8 -86 8 -30 13 -70
12 -90 l-3 -36 57 1 c50 2 57 5 54 22 -2 10 -4 28 -5 39 -6 41 -19 75 -29 69
-13 -8 -38 15 -38 37 0 11 -7 19 -16 19 -8 0 -13 4 -9 10 3 5 11 7 19 4 8 -3
12 3 12 18 -1 14 4 22 13 20 7 -1 19 2 25 7 19 16 -32 118 -61 126 -13 3 -23
12 -23 19 0 8 -12 19 -27 24 -21 8 -23 11 -8 11 23 1 10 16 -24 26 -22 7 -23
5 -16 -27 3 -18 9 -41 12 -51 4 -16 2 -17 -16 -6 -13 9 -21 27 -24 54 l-4 40
-1 -41z"/>
<path d="M3809 538 c-8 -26 -4 -110 13 -223 11 -77 21 -179 21 -227 2 -63 6
-88 15 -88 19 0 20 119 0 290 -6 52 -13 128 -17 169 -4 46 -11 76 -18 79 -7 2
-13 2 -14 0z"/>
<path d="M3236 453 c4 -27 10 -50 15 -53 4 -3 14 -30 22 -60 8 -30 16 -49 16
-42 1 16 51 6 67 -13 6 -9 15 -10 24 -5 21 13 -16 118 -44 122 -12 2 -24 16
-30 36 -7 18 -15 30 -19 26 -4 -4 -15 3 -26 14 -28 33 -33 27 -25 -25z"/>
</g>
</svg>
